<svg width="35" height="43" viewBox="0 0 35 43" fill="none" xmlns="http://www.w3.org/2000/svg">
<path d="M17.5 0.875L0.625 8.375V19.625C0.625 30.0312 7.825 39.7625 17.5 42.125C27.175 39.7625 34.375 30.0312 34.375 19.625V8.375L17.5 0.875ZM17.5 12.125C20.125 12.125 22.75 14.1875 22.75 16.8125V19.625C23.875 19.625 25 20.75 25 22.0625V28.625C25 29.75 23.875 30.875 22.5625 30.875H12.25C11.125 30.875 10 29.75 10 28.4375V21.875C10 20.75 11.125 19.625 12.25 19.625V16.8125C12.25 14.1875 14.875 12.125 17.5 12.125ZM17.5 14.375C16 14.375 14.6875 15.3125 14.6875 16.8125V19.625H20.3125V16.8125C20.3125 15.3125 19 14.375 17.5 14.375Z" fill="#20BF55"/>
</svg>
