<svg width="45" height="45" viewBox="0 0 45 45" fill="none" xmlns="http://www.w3.org/2000/svg">
<path d="M22.5 0.549316C24.5654 0.549316 26.5576 0.812988 28.4766 1.34033C30.3955 1.86768 32.1826 2.62939 33.8379 3.62549C35.4932 4.62158 37.0093 5.79346 38.3862 7.14111C39.7632 8.48877 40.9424 10.0049 41.9238 11.6895C42.9053 13.374 43.6597 15.1685 44.187 17.0728C44.7144 18.9771 44.9854 20.9692 45 23.0493C45 25.4663 44.6338 27.7954 43.9014 30.0366C43.1689 32.2778 42.1216 34.3359 40.7593 36.2109C39.397 38.0859 37.7783 39.7266 35.9033 41.1328C34.0283 42.5391 31.9336 43.6304 29.6191 44.4067C29.5752 44.4214 29.5093 44.4287 29.4214 44.4287C29.3335 44.4287 29.2676 44.436 29.2236 44.4507C28.8721 44.4507 28.5938 44.3481 28.3887 44.1431C28.1836 43.938 28.0811 43.667 28.0811 43.3301V40.2539C28.0811 39.2432 28.0884 38.2104 28.103 37.1558C28.103 36.4087 27.9932 35.6543 27.7734 34.8926C27.5537 34.1309 27.1582 33.4937 26.5869 32.981C28.2861 32.7905 29.7729 32.4463 31.0474 31.9482C32.3218 31.4502 33.3911 30.7471 34.2554 29.8389C35.1196 28.9307 35.7642 27.832 36.189 26.543C36.6138 25.2539 36.8335 23.7012 36.8481 21.8848C36.8481 20.7422 36.6577 19.6655 36.2769 18.6548C35.896 17.644 35.3174 16.7065 34.541 15.8423C34.7021 15.4321 34.8193 15.0073 34.8926 14.5679C34.9658 14.1284 35.0024 13.689 35.0024 13.2495C35.0024 12.6782 34.9438 12.1143 34.8267 11.5576C34.7095 11.001 34.541 10.4443 34.3213 9.8877C34.248 9.8584 34.1675 9.84375 34.0796 9.84375C33.9917 9.84375 33.9111 9.84375 33.8379 9.84375C33.3691 9.84375 32.8784 9.91699 32.3657 10.0635C31.853 10.21 31.3477 10.4004 30.8496 10.6348C30.3516 10.8691 29.8608 11.1255 29.3774 11.4038C28.894 11.6821 28.4766 11.9458 28.125 12.1948C26.2939 11.6821 24.4189 11.4258 22.5 11.4258C20.5811 11.4258 18.7061 11.6821 16.875 12.1948C16.5088 11.9458 16.0913 11.6821 15.6226 11.4038C15.1538 11.1255 14.6704 10.8765 14.1724 10.6567C13.6743 10.437 13.1616 10.2466 12.6343 10.0854C12.1069 9.92432 11.6162 9.84375 11.1621 9.84375H10.9204C10.8325 9.84375 10.752 9.8584 10.6787 9.8877C10.4736 10.4297 10.3125 10.979 10.1953 11.5356C10.0781 12.0923 10.0122 12.6636 9.99756 13.2495C9.99756 13.689 10.0342 14.1284 10.1074 14.5679C10.1807 15.0073 10.2979 15.4321 10.459 15.8423C9.68262 16.6919 9.104 17.6221 8.72314 18.6328C8.34229 19.6436 8.15186 20.7275 8.15186 21.8848C8.15186 23.6719 8.36426 25.2173 8.78906 26.521C9.21387 27.8247 9.8584 28.9233 10.7227 29.8169C11.5869 30.7104 12.6562 31.4209 13.9307 31.9482C15.2051 32.4756 16.6919 32.8271 18.3911 33.0029C17.9663 33.3838 17.644 33.8379 17.4243 34.3652C17.2046 34.8926 17.0508 35.4419 16.9629 36.0132C16.5674 36.2036 16.1499 36.3501 15.7104 36.4526C15.271 36.5552 14.8315 36.6064 14.3921 36.6064C13.4546 36.6064 12.6782 36.3867 12.063 35.9473C11.4478 35.5078 10.8984 34.9072 10.415 34.1455C10.2393 33.8672 10.0269 33.5889 9.77783 33.3105C9.52881 33.0322 9.25781 32.7832 8.96484 32.5635C8.67188 32.3438 8.35693 32.168 8.02002 32.0361C7.68311 31.9043 7.33154 31.8311 6.96533 31.8164H6.70166C6.58447 31.8164 6.47461 31.8384 6.37207 31.8823C6.26953 31.9263 6.16699 31.9702 6.06445 32.0142C5.96191 32.0581 5.91797 32.1313 5.93262 32.2339C5.93262 32.4097 6.03516 32.5781 6.24023 32.7393C6.44531 32.9004 6.61377 33.0322 6.74561 33.1348L6.81152 33.1787C7.13379 33.4277 7.41211 33.6621 7.64648 33.8818C7.88086 34.1016 8.10059 34.3433 8.30566 34.6069C8.51074 34.8706 8.6792 35.1489 8.81104 35.4419C8.94287 35.7349 9.11133 36.0791 9.31641 36.4746C9.81445 37.6172 10.5103 38.4448 11.4038 38.9575C12.2974 39.4702 13.374 39.7339 14.6338 39.7485C15.0146 39.7485 15.3955 39.7266 15.7764 39.6826C16.1572 39.6387 16.5381 39.5728 16.9189 39.4849V43.3081C16.9189 43.6597 16.8164 43.938 16.6113 44.1431C16.4062 44.3481 16.1206 44.4507 15.7544 44.4507H15.5786C15.5054 44.4507 15.4395 44.436 15.3809 44.4067C13.0811 43.6597 10.9863 42.583 9.09668 41.1768C7.20703 39.7705 5.58838 38.1226 4.24072 36.2329C2.89307 34.3433 1.85303 32.2778 1.12061 30.0366C0.388184 27.7954 0.0146484 25.4663 0 23.0493C0 20.9839 0.263672 18.9917 0.791016 17.0728C1.31836 15.1538 2.08008 13.3667 3.07617 11.7114C4.07227 10.0562 5.24414 8.54004 6.5918 7.16309C7.93945 5.78613 9.45557 4.60693 11.1401 3.62549C12.8247 2.64404 14.6191 1.88965 16.5234 1.3623C18.4277 0.834961 20.4199 0.563965 22.5 0.549316Z" fill="#0B4F6C"/>
</svg>
