<svg width="49" height="34" viewBox="0 0 49 34" fill="none" xmlns="http://www.w3.org/2000/svg">
<path d="M47.1122 5.25938C46.8384 4.24194 46.3021 3.31429 45.557 2.56925C44.812 1.82421 43.8843 1.28792 42.8669 1.01406C39.12 3.07336e-07 24.0638 0 24.0638 0C24.0638 0 9.00754 3.07336e-07 5.26067 1.01406C4.24324 1.28792 3.31558 1.82421 2.57054 2.56925C1.8255 3.31429 1.28922 4.24194 1.01536 5.25938C0.315731 9.08061 -0.023778 12.9591 0.00129325 16.8438C-0.023778 20.7284 0.315731 24.6069 1.01536 28.4281C1.28922 29.4456 1.8255 30.3732 2.57054 31.1182C3.31558 31.8633 4.24324 32.3996 5.26067 32.6734C9.00754 33.6875 24.0638 33.6875 24.0638 33.6875C24.0638 33.6875 39.12 33.6875 42.8669 32.6734C43.8843 32.3996 44.812 31.8633 45.557 31.1182C46.3021 30.3732 46.8384 29.4456 47.1122 28.4281C47.8119 24.6069 48.1514 20.7284 48.1263 16.8438C48.1514 12.9591 47.8119 9.08061 47.1122 5.25938ZM19.2513 24.0625V9.625L31.7466 16.8438L19.2513 24.0625Z" fill="#BD144B"/>
</svg>
